<?xml version="1.0" encoding="UTF-8" standalone="no"?>
<svg width="1746px" height="1685px" viewBox="0 0 1746 1685" version="1.1" xmlns="http://www.w3.org/2000/svg" xmlns:xlink="http://www.w3.org/1999/xlink" xmlns:sketch="http://www.bohemiancoding.com/sketch/ns">
    <!-- Generator: Sketch 3.3.2 (12043) - http://www.bohemiancoding.com/sketch -->
    <title>atom</title>
    <defs></defs>
    <g id="Page-1" stroke="none" stroke-width="1" fill="none" fill-rule="evenodd" sketch:type="MSPage">
        <g id="atom" sketch:type="MSLayerGroup" fill="#FFFFFF">
            <path d="M840.670363,969.027161 C770.80833,969.027161 714.253351,912.522662 714.253351,842.692101 C714.253351,772.936547 770.80833,716.33204 840.670363,716.33204 C910.457356,716.33204 967.062361,772.936547 967.062361,842.692101 C967.062361,912.522662 910.457356,969.027161 840.670363,969.027161 Z M1492.54091,1130.89005 C1483.8363,1059.48436 1465.80174,984.953429 1440.28821,909.497421 C1485.13699,812.28968 1517.95438,716.682067 1538.3652,626.224865 C1627.93768,693.455218 1680.74067,774.961708 1680.74067,862.793702 C1680.74067,964.651813 1609.92814,1058.20926 1492.54091,1130.89005 L1492.54091,1130.89005 Z M1278.12725,578.9461 C1256.31569,545.443432 1246.64139,532.768458 1223.05389,501.690983 C1191.28705,494.090378 1158.64475,487.539857 1124.75178,482.114425 C1164.34777,528.943153 1188.75488,560.394623 1223.94853,614.348919 C1285.60622,709.156468 1334.68223,807.439294 1370.20106,904.247003 C1342.21122,963.026683 1310.11921,1022.2314 1273.19964,1080.88607 C1233.32851,1144.0661 1190.6809,1202.42075 1146.5325,1256.05002 C1060.86208,1272.07629 969.113448,1281.25202 872.96248,1281.25202 C804.776336,1281.25202 738.516212,1276.85167 675.307706,1268.47601 C640.989514,1264.07565 575.304696,1251.64967 575.304696,1251.64967 C490.209588,1234.22328 412.643471,1209.12128 344.657433,1178.59385 C353.412074,1116.61391 369.070374,1050.98369 391.60732,982.928268 C413.493922,1023.5065 438.707288,1064.33475 467.897761,1106.26309 C511.570912,1168.99308 520.474041,1185.74378 558.294089,1230.99738 C590.636233,1237.69792 624.028934,1243.49838 658.347125,1247.89873 C603.843234,1189.01904 575.429762,1156.34208 522.07648,1071.01028 C483.681128,1009.45538 451.38901,951.150738 424.44973,894.271208 C459.643385,807.539302 504.26704,718.857241 559.646396,631.250265 C598.266868,569.820373 639.688825,512.590816 682.711631,460.011629 L686.038394,455.986309 C746.345362,448.685728 808.478298,444.285377 873.062533,444.285377 C955.956474,444.285377 1036.02392,450.735891 1111.43889,462.836854 C1145.08173,468.262286 1177.92414,474.812808 1209.56591,482.363409 C1313.22085,507.140382 1405.06954,542.893229 1479.43396,586.596709 C1464.62611,661.277656 1439.96304,740.683979 1406.84548,821.790437 C1372.57732,740.083931 1329.80465,658.277417 1278.12725,578.9461 Z M1328.25382,1115.66384 C1353.99247,1074.88559 1377.12973,1034.03234 1398.7662,993.204086 C1415.1749,1051.83375 1426.53092,1109.46334 1431.48354,1164.66774 C1376.65448,1191.8449 1314.52154,1215.12176 1246.66057,1233.49822 C1274.70044,1196.07024 1302.16499,1156.99213 1328.25382,1115.66384 Z M899.801707,1491.46876 C848.774658,1459.01618 787.797636,1403.43803 737.996237,1357.38436 C702.752555,1354.80915 668.534417,1350.93385 634.991636,1346.23347 C698.250168,1412.08871 775.060584,1484.69322 842.221185,1530.14684 C695.268287,1620.104 555.394142,1645.156 457.392192,1583.40108 C370.521143,1528.67172 331.150273,1414.63764 335.752713,1269.7261 L337.628707,1246.67427 C427.401294,1284.6773 531.20632,1313.42958 644.991636,1329.83089 C678.534417,1334.70628 712.752555,1338.53158 747.996237,1341.15679 C788.667797,1344.20704 830.414926,1346.00718 872.96248,1346.00718 C944.375335,1346.00718 1013.3619,1341.03178 1079.37189,1332.4561 C1069.44163,1342.90693 1059.41131,1353.35776 1049.381,1363.45857 C1000.17992,1412.73749 949.903265,1455.41589 899.801707,1491.46876 Z M258.111556,591.672113 C277.346753,580.071189 297.707546,568.920302 319.068869,558.444467 C396.960158,520.391437 489.484204,490.639068 591.413235,470.837492 C587.486153,476.137914 583.459018,481.138312 579.606976,486.38873 C553.6182,521.466523 528.579928,558.09444 504.392106,596.322484 C459.468293,667.703167 420.897847,739.358873 388.830849,810.189513 C361.341277,738.05877 335.356213,652.35306 325.27587,576.797044 C303.664414,587.29788 283.328634,598.423766 264.218504,610.099695 C279.551632,705.057257 311.764997,809.164432 351.411013,899.846652 C318.518577,985.703489 295.456352,1069.13513 282.474471,1147.71639 C147.753057,1073.06044 65.1842882,972.852466 65.1842882,862.743698 C65.1842882,759.435472 137.947859,664.72793 258.111556,591.672113 Z M913.40892,234.993712 C957.507296,271.89665 1008.08039,330.799907 1050.30278,374.078354 C1084.74603,377.703642 1118.38887,382.379015 1151.10621,388.129472 C1095.20158,324.67442 1029.1953,247.419701 968.888329,195.615576 C1123.57032,94.7075413 1272.44924,64.0050966 1375.25374,128.635243 C1463.35044,184.214669 1502.62125,300.52393 1496.61807,448.035676 C1495.74261,470.787488 1493.59147,494.264357 1490.58988,518.341274 C1395.11427,465.737085 1276.9016,425.683896 1144.18125,402.457047 C1111.43889,396.731591 1077.82107,392.056218 1043.3528,388.405928 C988.423684,382.605466 931.44348,379.505219 872.96248,379.505219 C830.640046,379.505219 789.443208,381.430372 748.696609,384.530619 C751.6982,381.330364 753.974406,379.030181 753.974406,379.030181 C806.127052,323.575765 859.880546,275.346925 913.40892,234.993712 Z M1561.20231,477.813047 C1575.15971,291.923245 1526.4839,142.711364 1411.99822,70.5556182 C1282.32948,-11.2258939 1099.80773,26.2020864 915.56006,152.237122 C795.596469,59.5547422 673.481738,0 564.999233,0 C501.690674,0 445.160708,15.7012502 397.085224,46.9537388 C285.601128,119.584522 232.12331,309.398681 248.431955,501.113947 C268.492589,490.163075 289.628793,479.412219 311.640461,469.361418 C304.11147,315.999207 346.758547,156.787485 432.328906,101.283065 C469.723729,76.8311179 514.422423,64.6551483 564.999233,64.6551483 C655.672298,64.6551483 758.051567,115.334184 860.355797,192.565333 C789.493234,247.819733 719.205976,315.72514 651.970335,394.806437 C524.978018,412.532849 409.516814,445.085441 312.690488,489.688993 C290.628793,499.689789 269.492589,510.440645 249.431955,521.791549 C94.6999341,608.423447 0.5,728.332995 0.5,862.743698 C0.5,1003.95494 104.680224,1129.0149 273.619777,1216.69688 C272.919406,1223.04739 271.868849,1229.87293 271.49365,1236.19844 C258.086543,1421.08816 306.737332,1569.59998 420.722754,1641.58071 C547.414912,1721.46208 724.45876,1687.68439 904.5042,1568.47489 C1000.00482,1622.75422 1094.88012,1653.05663 1180.8757,1653.05663 C1244.28431,1653.05663 1300.78927,1637.23037 1348.9648,1605.90287 C1452.61975,1538.3975 1504.32216,1396.33706 1498.26895,1224.02334 C1478.05823,1235.37425 1456.79696,1246.35012 1434.58519,1256.47593 C1433.50962,1390.21157 1391.76249,1501.01952 1313.72112,1551.69856 C1276.20123,1576.1005 1231.67763,1588.32647 1180.92573,1588.32647 C1113.11478,1588.32647 1038.47522,1566.79976 962.459921,1527.44663 C1027.59445,1477.94268 1092.4038,1417.46287 1154.73684,1347.4823 C1163.86668,1337.08147 1172.99652,1326.45562 1182.10135,1315.77977 C1275.12566,1296.70325 1360.22077,1269.50109 1434.58519,1235.29836 C1456.79696,1224.94754 1478.05823,1214.09668 1498.26895,1202.74577 C1651.82534,1116.18888 1745.5,996.604357 1745.5,862.793702 C1745.44997,745.409355 1673.11163,639.450918 1551.87236,556.519314 C1556.59987,526.716941 1559.47639,501.989972 1561.20231,477.813047 Z" id="atom-copy" sketch:type="MSShapeGroup"></path>
            <path d="M982.08539,842.513006 C982.08539,915.163315 922.712532,973.949458 849.513118,973.949458 C776.234995,973.949458 716.91461,915.163315 716.91461,842.513006 C716.91461,769.940732 776.234995,711.050542 849.513118,711.050542 C922.712532,711.050542 982.08539,769.940732 982.08539,842.513006 L982.08539,842.513006 Z" id="Path-Copy-3" sketch:type="MSShapeGroup"></path>
        </g>
    </g>
</svg>